<svg t="1679935735839" class="icon" viewBox="0 0 1024 1024" version="1.1" xmlns="http://www.w3.org/2000/svg" p-id="8774" width="200" height="200"><path d="M719.54 295.95c-13.35-2.59-26.97-3.5-40.55-2.72-23.68 1.38-36.61 28.9-22.85 48.21l0.39 0.55c6.08 8.6 15.83 14.31 26.32 13.68 21.53-1.28 44.46 4.74 67.65 23.67 15.2 12.42 27.35 28.84 32.78 47.7 15.33 53.27-16.46 106.85-66.49 121.85l-25.19 7.55 3.13 26.13c0.51 3.97 0.78 7.97 0.81 11.98 0.18 43.45-28.2 81.86-69.79 94.45l-23.07 7.07 1.25 28.55c-0.06 54.54-44.26 98.73-98.8 98.78-54.47 0-98.78-44.32-98.69-100.3l1.18-27.02-23.1-7.08c-41.58-12.6-69.96-51-69.79-94.45 0.01-6.52 0.66-13.03 1.94-19.42l5.58-28.2-24.52-7.04c-38.84-11.13-69.15-43.66-73.9-83.79-6.71-54.06 31.68-103.32 85.74-110.02a98.674 98.674 0 0 1 70.17 18.12 162.545 162.545 0 0 1 37.73-49.76c-49.49-36.53-118.08-44.05-178.13-8.8a159.024 159.024 0 0 0-69.04 83.12c-29.48 82.4 10.88 166.62 81.95 200.79-0.05 1.67-0.08 3.32-0.08 4.99-0.26 62.49 35.8 119.43 92.39 145.93 7.99 81.54 76.95 145.48 160.57 145.48 83.63 0 152.59-63.94 160.58-145.49 54.88-25.68 90.59-80.12 92.29-140.69 72.06-34.7 112.67-121.26 80.58-204.21-19.73-51.01-65.31-89.29-119.04-99.61z" fill="#EBB85D" p-id="8775"></path><path d="M536.51 324.24h-62.55v-17.01c0-99.55 71.97-182.59 166.59-199.85 19.05-3.47 36.54 11.56 36.54 30.92 0 14.86-10.4 27.93-25 30.57-65.64 11.83-115.58 69.36-115.58 138.36v17.01z" fill="#D26500" p-id="8776"></path><path d="M552.51 232.43h-62.55c0-11.37-5.31-22.09-14.37-28.96a35.916 35.916 0 0 0-4.86-3.13c-10.02-5.4-17.17-14.87-17.17-26.24v-5.79c0-21.11 21.95-34.68 41.14-25.88 35.19 16.13 57.77 51.28 57.81 90z" fill="#D26500" p-id="8777"></path><path d="M662.04 416.68c-16.79-70.01-79.36-122.32-154.13-123.6-0.94-0.02-1.85-0.13-2.78-0.13l-0.06 0.02c-6.72 0.04-13.42 0.51-20.08 1.39-1.24 0.16-2.47 0.3-3.69 0.48-6.61 0.96-13.15 2.34-19.58 4.13-0.5 0.14-0.97 0.31-1.45 0.45-6.67 1.92-13.2 4.28-19.56 7.05l-0.34 0.14c-6.43 2.85-12.66 6.12-18.66 9.79-0.28 0.17-0.58 0.28-0.86 0.45-1.09-0.84-2.27-1.6-3.38-2.41-5.4 4.89-10.46 10.14-15.16 15.71a161.573 161.573 0 0 0-54.09 86.51c-4.63 19.28 10.9 37.64 30.73 37.64 14.29 0.03 26.77-9.68 30.23-23.55a98.688 98.688 0 0 1 31.63-51.07c1.56-1.2 3.19-2.33 4.75-3.53 0.27-0.34 0.58-0.64 0.83-0.98 43.49-32.6 105.17-23.78 137.78 19.71a98.429 98.429 0 0 1 16.91 35.89c3.46 13.87 15.93 23.59 30.23 23.55 19.83 0 35.35-18.36 30.73-37.64z" fill="#EBB85D" p-id="8778"></path><path d="M475.46 330.12c-0.48 0.14-0.95 0.31-1.45 0.45a163.44 163.44 0 0 0-19.56 7.05l-0.34 0.14c-6.43 2.85-12.66 6.12-18.66 9.79-0.28 0.17-0.58 0.28-0.86 0.45-1.1-0.84-2.25-1.6-3.38-2.41-5.4 4.89-10.46 10.14-15.14 15.72v0.02c4.68-5.59 9.74-10.84 15.14-15.73-49.49-36.53-118.07-44.05-178.13-8.8-32 18.81-56.42 48.21-69.04 83.11-29.46 82.41 10.88 166.64 81.97 200.81-0.06 1.67-0.08 3.32-0.08 4.99-0.26 62.48 35.78 119.43 92.37 145.93 7.99 81.55 76.95 145.48 160.57 145.48 83.63 0 152.59-63.93 160.59-145.49 54.89-25.67 90.6-80.11 92.29-140.68 72.06-34.72 112.67-121.27 80.58-204.21-19.73-51.03-65.32-89.29-119.04-99.63a164.592 164.592 0 0 0-40.55-2.72c-23.67 1.38-36.62 28.9-22.85 48.21l0.39 0.56c6.07 8.59 15.81 14.29 26.3 13.67 21.53-1.28 44.46 4.75 67.65 23.68 15.22 12.42 27.35 28.84 32.78 47.7 15.34 53.28-16.47 106.85-66.48 121.85l-25.21 7.55 3.14 26.13c0.51 3.97 0.78 7.97 0.81 11.98 0.17 43.46-28.21 81.87-69.81 94.45l-23.07 7.07 1.25 28.55c-0.06 54.54-44.26 98.73-98.8 98.79-54.47 0-98.78-44.32-98.69-100.3l1.17-27.02-23.1-7.08c-41.58-12.6-69.95-51.01-69.77-94.46 0.01-6.52 0.65-13.03 1.92-19.42l5.58-28.19-24.5-7.04c-38.84-11.13-69.17-43.66-73.92-83.79-6.92-53.82 31.1-103.06 84.92-109.98a98.271 98.271 0 0 1 65.25 14.54 160.005 160.005 0 0 0-25.77 56c-4.63 19.3 10.9 37.64 30.73 37.64 14.29 0.04 26.77-9.68 30.23-23.55a98.786 98.786 0 0 1 31.65-51.07c1.56-1.2 3.17-2.33 4.75-3.53 0.25-0.34 0.56-0.64 0.83-0.98a98.019 98.019 0 0 1 58.72-19.66c45.48 0.06 85.06 31.1 95.97 75.25 3.46 13.87 15.93 23.59 30.23 23.55 19.83 0 35.36-18.34 30.73-37.64-14.79-60.99-63.53-107.92-125.04-120.4 5.04-63.65 52.27-115.94 115.08-127.42 14.62-2.63 25.02-15.72 25.02-30.56 0-19.38-17.5-34.4-36.56-30.93a202.874 202.874 0 0 0-111.56 61.22 99.571 99.571 0 0 0-34.29-26.15c-19.19-8.82-41.13 4.75-41.13 25.88v5.77c0 11.38 7.13 20.86 17.17 26.24a36.002 36.002 0 0 1 18.88 29.18 201.63 201.63 0 0 0-15.15 66.76c-4.25 0.82-8.59 1.52-12.73 2.68z" fill="#EBB85D" opacity=".2" p-id="8779"></path></svg>